<?xml version="1.0" encoding="UTF-8"?>
<!DOCTYPE svg PUBLIC "-//W3C//DTD SVG 1.1//EN" "http://www.w3.org/Graphics/SVG/1.1/DTD/svg11.dtd">
<svg xmlns="http://www.w3.org/2000/svg" version="1.1" width="500px" height="500px" style="shape-rendering:geometricPrecision; text-rendering:geometricPrecision; image-rendering:optimizeQuality; fill-rule:evenodd; clip-rule:evenodd" xmlns:xlink="http://www.w3.org/1999/xlink">
<g><path style="opacity:0.26" fill="#020202" d="M 309.5,6.5 C 321.947,6.45778 329.447,12.4578 332,24.5C 332.395,63.3571 333.061,102.024 334,140.5C 332.643,147.544 329.143,153.378 323.5,158C 307.64,170.371 291.974,182.871 276.5,195.5C 282.233,200.883 288.233,206.05 294.5,211C 296.134,212.308 297.968,213.142 300,213.5C 309.105,207.399 317.938,200.899 326.5,194C 340.268,188.249 350.101,192.082 356,205.5C 356.291,221.492 356.958,237.492 358,253.5C 358.663,298.846 358.997,344.179 359,389.5C 360.287,392.145 362.453,393.145 365.5,392.5C 365.333,317.833 365.5,243.166 366,168.5C 366.543,161.279 369.71,155.445 375.5,151C 382.167,146.333 388.833,141.667 395.5,137C 404.851,133.448 413.017,135.281 420,142.5C 422.34,146.521 423.674,150.854 424,155.5C 425.448,249.829 425.781,344.163 425,438.5C 423.297,444.866 419.464,449.366 413.5,452C 378.5,452.667 343.5,452.667 308.5,452C 302.508,449.341 298.675,444.841 297,438.5C 296.833,421.157 296.333,403.824 295.5,386.5C 253.317,420.427 211.317,454.594 169.5,489C 159.939,495.117 151.106,494.617 143,487.5C 141.667,485.5 140.333,483.5 139,481.5C 138.489,479.122 137.822,476.788 137,474.5C 136.826,456.926 136.326,439.426 135.5,422C 135.628,414.725 135.962,407.392 136.5,400C 135.601,387.678 134.934,375.511 134.5,363.5C 134.682,355.895 137.349,349.395 142.5,344C 159.764,331.402 176.43,318.069 192.5,304C 185.287,297.288 177.62,291.122 169.5,285.5C 160.469,290.694 152.135,296.861 144.5,304C 140.467,305.883 136.301,307.383 132,308.5C 120.445,307.278 113.778,300.944 112,289.5C 110.619,228.84 109.619,168.173 109,107.5C 107.333,106.167 105.667,106.167 104,107.5C 103.985,183.869 103.318,260.203 102,336.5C 100.657,340.51 98.4905,344.01 95.5,347C 88.038,353.126 80.038,358.46 71.5,363C 59.1099,366.44 50.6099,362.274 46,350.5C 45.6667,347.5 45.3333,344.5 45,341.5C 44.0895,281.67 43.5895,221.837 43.5,162C 43.343,127.108 43.843,92.2745 45,57.5C 47.7071,51.7261 52.2071,48.2261 58.5,47C 92.8938,46.0206 127.227,46.354 161.5,48C 166.549,51.0581 170.216,55.3915 172.5,61C 172.472,77.958 172.472,95.1247 172.5,112.5C 173.552,112.649 174.552,112.483 175.5,112C 216.983,77.7607 258.65,43.7607 300.5,10C 303.459,8.39574 306.459,7.22907 309.5,6.5 Z M 270.5,112.5 C 271.794,114.048 272.461,116.048 272.5,118.5C 272.333,120.5 272.167,122.5 272,124.5C 257.833,136 243.667,147.5 229.5,159C 226.176,159.502 223.842,158.169 222.5,155C 238.694,140.968 254.694,126.801 270.5,112.5 Z M 196.5,217.5 C 203.55,221.703 210.216,226.536 216.5,232C 234.353,247.355 252.353,262.521 270.5,277.5C 271.485,279.098 271.651,280.765 271,282.5C 247.142,262.637 223.309,242.804 199.5,223C 197.393,221.736 196.393,219.903 196.5,217.5 Z M 239.5,340.5 C 241.655,340.372 243.655,340.872 245.5,342C 246.517,343.049 246.684,344.216 246,345.5C 229.397,359.096 213.064,373.096 197,387.5C 196.333,383.167 196.333,378.833 197,374.5C 211.328,363.268 225.494,351.934 239.5,340.5 Z"/></g>
<g><path style="opacity:1" fill="#e8edee" d="M 343.5,317.5 C 343.5,347.833 343.5,378.167 343.5,408.5C 356.011,408.829 368.345,408.495 380.5,407.5C 380.333,327.166 380.5,246.833 381,166.5C 387.55,160.949 394.383,155.783 401.5,151C 404.834,149.788 407.334,150.621 409,153.5C 410.23,247.831 410.563,342.164 410,436.5C 409.25,437.126 408.416,437.626 407.5,438C 376.167,438.667 344.833,438.667 313.5,438C 312.944,437.617 312.611,437.117 312.5,436.5C 313.155,415.473 312.488,394.806 310.5,374.5C 306.709,371.882 303.043,369.049 299.5,366C 298.167,365.333 296.833,365.333 295.5,366C 249.59,403.864 203.424,441.364 157,478.5C 154.743,477.91 153.076,476.577 152,474.5C 151.235,435.5 150.901,396.5 151,357.5C 172.893,339.473 195.06,321.806 217.5,304.5C 201.906,291.032 185.906,278.032 169.5,265.5C 157.358,274.475 145.358,283.642 133.5,293C 131.299,293.825 129.466,293.325 128,291.5C 126.573,251.559 125.74,211.559 125.5,171.5C 125.5,144.833 125.5,118.167 125.5,91.5C 119.833,91.5 114.167,91.5 108.5,91.5C 101.833,91.5 95.1667,91.5 88.5,91.5C 88.6667,171.834 88.5,252.167 88,332.5C 81.1183,338.383 73.9516,343.883 66.5,349C 63.6917,349.92 61.5251,349.087 60,346.5C 58.7739,251.836 58.4406,157.169 59,62.5C 91.095,61.3379 123.262,61.1712 155.5,62C 156,62.5 156.5,63 157,63.5C 157.167,83.8415 157.667,104.175 158.5,124.5C 162.833,127.833 167.167,131.167 171.5,134.5C 214.867,99.8117 257.867,64.6451 300.5,29C 303.97,25.8543 307.804,23.3543 312,21.5C 314.151,21.6431 315.818,22.6431 317,24.5C 318.35,63.8256 318.683,103.159 318,142.5C 295.814,160.025 273.647,177.525 251.5,195C 267.073,208.411 283.073,221.244 299.5,233.5C 311.283,224.892 322.95,216.058 334.5,207C 337.025,206.104 339.192,206.604 341,208.5C 342.795,244.742 343.628,281.076 343.5,317.5 Z M 270.5,112.5 C 254.694,126.801 238.694,140.968 222.5,155C 223.842,158.169 226.176,159.502 229.5,159C 243.667,147.5 257.833,136 272,124.5C 272.167,122.5 272.333,120.5 272.5,118.5C 272.461,116.048 271.794,114.048 270.5,112.5 Z M 196.5,217.5 C 196.393,219.903 197.393,221.736 199.5,223C 223.309,242.804 247.142,262.637 271,282.5C 271.651,280.765 271.485,279.098 270.5,277.5C 252.353,262.521 234.353,247.355 216.5,232C 210.216,226.536 203.55,221.703 196.5,217.5 Z M 239.5,340.5 C 225.494,351.934 211.328,363.268 197,374.5C 196.333,378.833 196.333,383.167 197,387.5C 213.064,373.096 229.397,359.096 246,345.5C 246.684,344.216 246.517,343.049 245.5,342C 243.655,340.872 241.655,340.372 239.5,340.5 Z"/></g>
<g><path style="opacity:0.297" fill="#040404" d="M 284.5,79.5 C 286.164,80.9488 286.998,82.9488 287,85.5C 287.401,97.6709 287.901,109.838 288.5,122C 288.481,125.418 288.147,128.751 287.5,132C 267.644,148.024 247.644,163.857 227.5,179.5C 217.357,171.857 207.357,164.024 197.5,156C 227.035,130.956 256.035,105.456 284.5,79.5 Z M 270.5,112.5 C 254.694,126.801 238.694,140.968 222.5,155C 223.842,158.169 226.176,159.502 229.5,159C 243.667,147.5 257.833,136 272,124.5C 272.167,122.5 272.333,120.5 272.5,118.5C 272.461,116.048 271.794,114.048 270.5,112.5 Z"/></g>
<g><path style="opacity:0.773" fill="#868889" d="M 108.5,91.5 C 114.167,91.5 119.833,91.5 125.5,91.5C 125.5,118.167 125.5,144.833 125.5,171.5C 124.502,145.339 124.169,119.005 124.5,92.5C 118.974,92.8214 113.64,92.4881 108.5,91.5 Z"/></g>
<g><path style="opacity:0.292" fill="#030303" d="M 179.5,182.5 C 215.46,211.955 251.293,241.622 287,271.5C 288.1,286.501 288.767,301.501 289,316.5C 252.749,287.587 217.083,257.92 182,227.5C 181.403,212.468 180.57,197.468 179.5,182.5 Z M 196.5,217.5 C 196.393,219.903 197.393,221.736 199.5,223C 223.309,242.804 247.142,262.637 271,282.5C 271.651,280.765 271.485,279.098 270.5,277.5C 252.353,262.521 234.353,247.355 216.5,232C 210.216,226.536 203.55,221.703 196.5,217.5 Z"/></g>
<g><path style="opacity:0.297" fill="#030303" d="M 239.5,320.5 C 241.308,320.491 242.975,320.991 244.5,322C 252.545,329.047 260.878,335.713 269.5,342C 270.451,342.718 270.617,343.551 270,344.5C 241.073,369.382 212.24,394.382 183.5,419.5C 182.007,404.206 181.007,388.873 180.5,373.5C 180.833,371.5 181.167,369.5 181.5,367.5C 201.456,352.538 220.79,336.871 239.5,320.5 Z M 239.5,340.5 C 225.494,351.934 211.328,363.268 197,374.5C 196.333,378.833 196.333,383.167 197,387.5C 213.064,373.096 229.397,359.096 246,345.5C 246.684,344.216 246.517,343.049 245.5,342C 243.655,340.872 241.655,340.372 239.5,340.5 Z"/></g>
<g><path style="opacity:0.76" fill="#8a8d8e" d="M 343.5,317.5 C 344.498,347.329 344.831,377.329 344.5,407.5C 356.5,407.5 368.5,407.5 380.5,407.5C 368.345,408.495 356.011,408.829 343.5,408.5C 343.5,378.167 343.5,347.833 343.5,317.5 Z"/></g>
<g><path style="opacity:0.805" fill="#bfc3c3" d="M 310.5,374.5 C 312.488,394.806 313.155,415.473 312.5,436.5C 311.822,415.931 311.156,395.265 310.5,374.5 Z"/></g>
</svg>
